<?xml version="1.0" standalone="no"?><!DOCTYPE svg PUBLIC "-//W3C//DTD SVG 1.1//EN" "http://www.w3.org/Graphics/SVG/1.1/DTD/svg11.dtd"><svg t="1597051785008" class="icon" viewBox="0 0 1024 1024" version="1.1" xmlns="http://www.w3.org/2000/svg" p-id="2533" xmlns:xlink="http://www.w3.org/1999/xlink" width="16" height="16"><defs><style type="text/css"></style></defs><path d="M951.296 153.6H801.792C909.312 240.64 972.8 372.736 972.8 512c0 246.784-194.56 448.512-438.272 459.776-12.288 1.024-22.528-8.192-22.528-20.48 0-10.24 8.192-19.456 19.456-20.48C753.664 921.6 931.84 737.28 931.84 512c0-131.072-60.416-253.952-163.84-332.8V337.92c0 12.288-11.264 22.528-23.552 20.48-10.24-2.048-17.408-11.264-17.408-21.504V133.12c0-11.264 9.216-20.48 20.48-20.48h204.8c12.288 0 22.528 11.264 20.48 23.552-2.048 10.24-11.264 17.408-21.504 17.408zM492.544 51.2C244.736 51.2 51.2 253.952 51.2 512c0 139.264 63.488 271.36 171.008 358.4H73.728c-10.24 0-19.456 7.168-21.504 17.408-2.048 12.288 7.168 23.552 19.456 23.552h204.8c11.264 0 20.48-9.216 20.48-20.48V687.104c0-10.24-7.168-19.456-17.408-21.504-12.288-2.048-23.552 8.192-23.552 20.48v158.72C152.576 765.952 92.16 643.072 92.16 512 92.16 276.48 268.288 92.16 492.544 92.16c11.264 0 20.48-9.216 20.48-20.48s-9.216-20.48-20.48-20.48z" p-id="2534" fill="#2c2c2c"></path></svg>