<svg t="1594867381835" class="icon" viewBox="0 0 1024 1024" version="1.1" xmlns="http://www.w3.org/2000/svg" p-id="872" width="16" height="16"><path d="M22.658512 301.562701L496.872295 560.370902c4.749445 1.972846 9.791163 2.922735 14.979018 2.995804 4.96865 0 10.960257-1.972846 14.90595-2.922736l480.059254-258.881269A28.935078 28.935078 0 0 0 1022.964629 272.627623a29.884967 29.884967 0 0 0-17.024933-27.985189L531.798981 3.809055a29.73883 29.73883 0 0 0-28.935078 0L23.754538 244.642434a30.688719 30.688719 0 0 0-17.974822 27.985189c0 13.006172 5.991607 22.943471 16.951864 28.935078z m494.161451-233.818814l405.237233 206.856582L511.851313 495.486181 106.541012 274.600469 516.819963 67.816955z m483.055058 411.740319l-94.769689-48.005926-67.953593 36.9726 79.936807 40.918293-410.278951 220.885711L101.572362 509.442241l84.832389-42.964207-67.880525-36.9726-100.834364 49.978772c-22.943471 11.983214-23.89336 44.937053-0.949889 56.920267l474.140715 258.808201c4.96865 2.922735 10.960257 4.018761 15.928907 4.018761a28.131326 28.131326 0 0 0 14.979018-4.018761l479.109365-258.808201a31.857814 31.857814 0 0 0-1.022957-56.993336z m0 223.808446l-89.874107-43.987164-67.807457 36.9726 74.895089 36.9726-410.278951 220.812643-405.237233-220.812643 78.91385-35.949643-67.953593-36.9726-94.769688 42.964207c-22.943471 11.983214-23.966429 44.937053-1.022958 56.993336l474.140715 258.735133c5.991607 2.045915 9.9373 4.018761 15.928907 4.01876a28.131326 28.131326 0 0 0 14.979018-4.01876l479.109365-258.808201a31.857814 31.857814 0 0 0-1.022957-56.993336z" fill="#ffffff" p-id="873"></path></svg>
