<svg t="1590376933217" class="icon" viewBox="0 0 1024 1024" version="1.1" xmlns="http://www.w3.org/2000/svg" p-id="5829" width="16" height="16"><path d="M664.640957 64.132646 359.94949 64.132646c-22.040992 0-39.908942 17.86795-39.908942 39.908942l0 208.754464c0 22.040992 17.86795 39.908942 39.908942 39.908942L664.640957 352.704994c22.040992 0 39.908942-17.86795 39.908942-39.908942l0-208.754464C704.549899 82.000596 686.68195 64.132646 664.640957 64.132646zM666.098145 291.920606c0 17.632589-14.294564 31.927153-31.92613 31.927153l-243.751536 0c-17.633612 0-31.928177-14.294564-31.928177-31.927153L358.492302 124.918058c0-17.633612 14.294564-31.928177 31.928177-31.928177l243.751536 0c17.631566 0 31.92613 14.294564 31.92613 31.928177L666.098145 291.920606z" p-id="5830" fill="#ffffff"></path><path d="M293.363979 703.69902 90.0709 703.69902c-14.705933 0-26.627451 15.874549-26.627451 35.452443l0 185.436386c0 19.577894 11.920494 35.450397 26.627451 35.450397l203.294103 0c14.706957 0 26.627451-15.872502 26.627451-35.450397L319.992453 739.151463C319.99143 719.573569 308.070936 703.69902 293.363979 703.69902zM294.335097 906.041448c0 15.664771-9.537214 28.361955-21.300119 28.361955L110.400924 934.403402c-11.764951 0-21.302165-12.697183-21.302165-28.361955L89.098759 757.695818c0-15.663748 9.537214-28.361955 21.302165-28.361955l162.635077 0c11.762905 0 21.300119 12.698207 21.300119 28.361955L294.33612 906.041448z" p-id="5831" fill="#ffffff"></path><path d="M613.942275 703.69902 410.649196 703.69902c-14.705933 0-26.627451 15.874549-26.627451 35.452443l0 185.436386c0 19.577894 11.920494 35.450397 26.627451 35.450397l203.293079 0c14.706957 0 26.627451-15.872502 26.627451-35.450397L640.569726 739.151463C640.569726 719.573569 628.649232 703.69902 613.942275 703.69902zM614.913393 906.041448c0 15.664771-9.53619 28.361955-21.299095 28.361955L430.97922 934.403402c-11.764951 0-21.302165-12.697183-21.302165-28.361955L409.677055 757.695818c0-15.663748 9.537214-28.361955 21.302165-28.361955l162.635077 0c11.762905 0 21.299095 12.698207 21.299095 28.361955L614.913393 906.041448z" p-id="5832" fill="#ffffff"></path><path d="M933.711136 703.637622 731.190653 703.637622c-14.647605 0-26.524097 15.83464-26.524097 35.366486l0 184.987155c0 19.531845 11.875468 35.365462 26.524097 35.365462l202.520483 0c14.649652 0 26.526143-15.833617 26.526143-35.365462L960.237279 739.003084C960.237279 719.471239 948.361811 703.637622 933.711136 703.637622zM934.679184 905.490909c0 15.626909-9.499351 28.29237-21.219277 28.29237L751.444952 933.783279c-11.719926 0-21.221324-12.666484-21.221324-28.29237L730.223628 757.503437c0-15.626909 9.501398-28.293393 21.221324-28.293393l162.013931 0c11.719926 0 21.219277 12.667507 21.219277 28.293393L934.67816 905.490909z" p-id="5833" fill="#ffffff"></path><path d="M486.713592 323.847759l51.16531 0 0 379.851261-51.16531 0 0-379.851261Z" p-id="5834" fill="#ffffff"></path><path d="M217.299583 715.578582c0 11.470239-10.828626 12.168134-24.187889 12.168134l-2.790556 0c-13.359262 0-24.187889-0.697895-24.187889-12.168134L166.13325 468.12984c0-11.470239 10.828626-20.769023 24.187889-20.769023l2.790556 0c13.359262 0 24.187889 9.298783 24.187889 20.769023L217.299583 715.578582z" p-id="5835" fill="#ffffff"></path><path d="M858.034573 703.83205c0 10.968819-10.828626 11.634991-24.187889 11.634991l-2.790556 0c-13.359262 0-24.187889-0.666172-24.187889-11.634991L806.868239 467.221144c0-10.968819 10.828626-19.860327 24.187889-19.860327l2.790556 0c13.359262 0 24.187889 8.891508 24.187889 19.860327L858.034573 703.83205z" p-id="5836" fill="#ffffff"></path><path d="M858.034573 474.478432c0 14.97711-9.278317 27.117614-20.723997 27.117614L186.85827 501.596046c-11.44568 0-20.723997-12.140505-20.723997-27.117614l0 0c0-14.97711 9.278317-27.117614 20.723997-27.117614l650.452305 0C848.756255 447.360817 858.034573 459.501322 858.034573 474.478432L858.034573 474.478432z" p-id="5837" fill="#ffffff"></path><path d="M677.943938 64.132646l-331.346547 0c-14.693654 0-26.605961 11.912307-26.605961 26.605961l0 235.360426c0 14.693654 11.912307 26.605961 26.605961 26.605961l331.346547 0c14.693654 0 26.605961-11.912307 26.605961-26.605961l0-235.360426C704.549899 76.044954 692.637592 64.132646 677.943938 64.132646zM646.866129 290.794969c0 10.286274-8.337899 18.624173-18.624173 18.624173L396.299373 309.419142c-10.286274 0-18.624173-8.337899-18.624173-18.624173l0-164.752298c0-10.285251 8.337899-18.624173 18.624173-18.624173l231.942583 0c10.286274 0 18.624173 8.337899 18.624173 18.624173L646.866129 290.794969z" p-id="5838" fill="#ffffff"></path><path d="M293.434587 703.637622 90.04941 703.637622c-14.693654 0-26.605961 11.912307-26.605961 26.605961l0 203.385177c0 14.693654 11.912307 26.605961 26.605961 26.605961l203.385177 0c14.693654 0 26.605961-11.912307 26.605961-26.605961L320.040549 730.243583C320.040549 715.548906 308.128241 703.637622 293.434587 703.637622zM281.550932 903.120932c0 10.286274-8.337899 18.624173-18.624173 18.624173L120.557238 921.745105c-10.285251 0-18.624173-8.337899-18.624173-18.624173L101.933065 760.751411c0-10.286274 8.337899-18.624173 18.624173-18.624173l142.369521 0c10.286274 0 18.624173 8.337899 18.624173 18.624173L281.550932 903.120932z" p-id="5839" fill="#ffffff"></path><path d="M613.989347 703.1976 410.60417 703.1976c-14.693654 0-26.605961 11.912307-26.605961 26.605961l0 203.385177c0 14.693654 11.912307 26.605961 26.605961 26.605961l203.385177 0c14.693654 0 26.605961-11.912307 26.605961-26.605961L640.595308 729.803561C640.595308 715.109907 628.683001 703.1976 613.989347 703.1976zM602.105692 902.68091c0 10.286274-8.337899 18.624173-18.62315 18.624173L441.111998 921.305083c-10.285251 0-18.624173-8.337899-18.624173-18.624173L422.487825 760.311389c0-10.286274 8.337899-18.624173 18.624173-18.624173l142.369521 0c10.285251 0 18.62315 8.337899 18.62315 18.624173L602.104669 902.68091z" p-id="5840" fill="#ffffff"></path><path d="M934.145018 703.637622 730.759841 703.637622c-14.693654 0-26.605961 11.912307-26.605961 26.605961l0 203.385177c0 14.693654 11.912307 26.605961 26.605961 26.605961l203.385177 0c14.693654 0 26.605961-11.912307 26.605961-26.605961L960.750979 730.243583C960.750979 715.548906 948.838671 703.637622 934.145018 703.637622zM922.261363 903.120932c0 10.286274-8.337899 18.624173-18.62315 18.624173L761.267669 921.745105c-10.285251 0-18.62315-8.337899-18.62315-18.624173L742.644519 760.751411c0-10.286274 8.337899-18.624173 18.62315-18.624173l142.370545 0c10.285251 0 18.62315 8.337899 18.62315 18.624173L922.261363 903.120932z" p-id="5841" fill="#ffffff"></path></svg>
