<svg t="1594866351796" class="icon" viewBox="0 0 1024 1024" version="1.1" xmlns="http://www.w3.org/2000/svg" p-id="2417" width="16" height="16"><path d="M938.24 129.706667c0-18.773333-15.36-34.133333-34.133333-34.133334-6.4 0-11.946667 1.706667-17.066667 4.693334L124.16 503.04c-11.093333 5.546667-18.346667 17.92-18.346667 30.72s7.253333 24.32 18.773334 30.293333l197.973333 108.373334c5.12 2.133333 10.666667 3.413333 15.36 3.413333 13.226667 0 24.746667-7.253333 30.72-18.773333 8.106667-16.64 1.28-37.546667-15.36-46.08l-138.24-78.08 553.813333-293.546667-348.16 423.253333c-5.12 6.826667-8.106667 14.506667-8.106666 22.186667v209.493333c0 18.346667 15.786667 34.133333 34.133333 34.133334s34.133333-15.786667 34.133333-34.133334v-196.693333l370.773334-451.413333-71.68 574.293333L571.733333 721.066667c-4.266667-2.56-9.386667-3.413333-14.933333-3.413334-13.226667 0-24.746667 7.253333-30.72 19.2-3.84 8.106667-4.693333 17.493333-1.706667 26.026667 2.986667 8.96 8.96 15.786667 17.066667 19.626667l251.306667 118.613333c4.266667 2.56 9.386667 3.413333 14.933333 3.413333 5.12 0 10.666667-1.28 15.786667-3.84 9.813333-5.12 16.64-14.506667 17.92-25.173333l96.853333-741.546667v-1.28-2.986666z" fill="#ffffff" p-id="2418"></path></svg>
