<svg t="1590406794800" class="icon" viewBox="0 0 1024 1024" version="1.1" xmlns="http://www.w3.org/2000/svg" p-id="2496" width="16" height="16"><path d="M122.88 287.232l389.632-224.768 46.592 27.136 26.624-15.36L512 31.744 96.256 271.872v331.776H122.88zM512 961.536l-389.12-224.768v-51.2h-26.624v66.56l415.744 240.128 283.136-162.816-26.624-15.872zM651.264 112.64l-26.624 15.36 276.48 159.232v449.536l-66.048 37.888 26.624 15.872 66.048-37.888V272.384z" fill="#ffffff" p-id="2497"></path><path d="M512 515.584c0-0.512-124.928-72.192-124.928-72.192l124.416 71.168 304.64-174.592-124.928-71.68-3.584-2.56-304.128 175.616V527.36l3.584 2.048 124.928 71.68v-0.512l304.64-174.592V339.968L512 514.56v1.024z" fill="#ffffff" p-id="2498"></path><path d="M387.072 576.512l-55.296-31.744-124.928-71.68v85.504l124.928 71.68 55.296 31.744 124.928 71.68 304.64-174.592V473.6L512 648.192z" fill="#ffffff" p-id="2499"></path><path d="M387.072 710.144l-179.712-103.424v85.504l179.712 103.424 124.928 71.68 304.64-175.616v-86.016L512 781.312c0 0.512-124.928-71.168-124.928-71.168zM207.872 339.968h-0.512v85.504l124.928 71.68 3.584 2.048V413.696L640 238.08l-3.584-2.048-124.416-71.68z" fill="#ffffff" p-id="2500"></path></svg>
