<svg t="1594867109276" class="icon" viewBox="0 0 1024 1024" version="1.1" xmlns="http://www.w3.org/2000/svg" p-id="4506" width="16" height="16"><path d="M962.016 440l-4-24-72.992-24.992q-10.016-30.016-24-58.016L895.04 264l-14.016-19.008q-43.008-60-102.016-103.008l-20-14.016-68.992 35.008q-28-14.016-58.016-24L608 65.984l-24-4q-39.008-6.016-72-6.016t-72 6.016l-24 4-24.992 72.992q-30.016 10.016-56.992 24L265.024 127.968l-20 15.008Q186.016 185.984 143.008 244.992l-14.016 20 34.016 68.992q-14.016 28-24 56.992l-72.992 24.992-4 24q-6.016 39.008-6.016 72t6.016 72l4 24 72.992 24.992q10.016 30.016 24 56.992l-34.016 68.992 14.016 20q22.016 30.016 47.008 55.008 23.008 23.008 55.008 47.008l20 14.016 68.992-34.016q28 14.016 56.992 24L416 957.952l24 4q39.008 6.016 72 6.016t72-6.016l24-4 24.992-72.992q28.992-10.016 56.992-24l68.992 35.008 20-15.008q32-23.008 55.008-47.008 24-23.008 47.008-55.008l14.016-20-34.016-68.992q14.016-28 24-58.016l72.992-24 4-24q6.016-39.008 6.016-72t-6.016-72zM896 511.008V512q0 19.008-2.016 42.016l-36 11.008-31.008 11.008-10.016 32q-8 27.008-20.992 52l-16 28.992 32 63.008q-14.016 16.992-28 31.008v0.992q-14.016 14.016-32 27.008l-62.016-31.008-28.992 15.008q-26.016 12.992-54.016 22.016l-31.008 10.016-10.016 31.008-12 35.008q-20.992 3.008-42.016 3.008-19.008 0-42.016-3.008l-11.008-35.008-11.008-31.008-31.008-10.016q-28-8.992-52.992-22.016l-28.992-15.008-30.016 15.008-32.992 16q-16.992-12.992-31.008-28-15.008-14.016-28-31.008l31.008-62.016-15.008-28.992q-14.016-27.008-22.016-52.992l-10.016-32-66.016-22.016q-3.008-20.992-3.008-42.016 0-19.008 3.008-42.016l66.016-22.016 10.016-31.008q8-27.008 22.016-52.992l15.008-30.016-15.008-28.992-16-32.992q26.016-32.992 59.008-59.008l62.016 31.008 30.016-15.008q24.992-14.016 52.992-22.016l31.008-10.016 10.016-31.008 12-36q23.008-2.016 42.016-2.016 20 0 42.016 2.016l22.016 67.008 31.008 8.992q28 8.992 54.016 22.016l28.992 16 62.016-32q32.992 27.008 60 60l-32 62.016 15.008 28.992q14.016 26.016 23.008 52.992l8.992 32 31.008 10.016 36 12q3.008 22.016 2.016 40.992z m-384-172.992q-72 0-123.008 51.008t-51.008 123.008 51.008 123.008T512 686.048t123.008-51.008 51.008-123.008-51.008-123.008T512 338.016z m72 245.984q-30.016 30.016-72 30.016t-72-30.016-30.016-72 30.016-72 72.512-30.016 72 30.016 29.504 72-30.016 72z" p-id="4507" fill="#ffffff"></path></svg>
