<?xml version="1.0" standalone="no"?><!DOCTYPE svg PUBLIC "-//W3C//DTD SVG 1.1//EN" "http://www.w3.org/Graphics/SVG/1.1/DTD/svg11.dtd"><svg t="1590126661318" class="icon" viewBox="0 0 1024 1024" version="1.1" xmlns="http://www.w3.org/2000/svg" p-id="4687" xmlns:xlink="http://www.w3.org/1999/xlink" width="16" height="16"><defs><style type="text/css"></style></defs><path d="M511.995907 113.852024c-26.862811 0-48.638767 21.775956-48.638767 48.638767L463.35714 912.382876c0 26.862811 21.775956 48.638767 48.638767 48.638767l0 0c26.862811 0 48.638767-21.775956 48.638767-48.638767L560.634674 162.491815C560.634674 135.629004 538.858718 113.852024 511.995907 113.852024L511.995907 113.852024zM546.514071 77.968769c-18.99461-18.99461-48.701189-20.084431-66.352197-2.433422L121.890095 433.807127c-17.649985 17.651009-16.561188 47.357588 2.433422 66.352197l0 0c18.99461 18.99461 48.701189 20.084431 66.352197 2.433422l358.272803-358.272803C566.598502 126.669958 565.508681 96.963379 546.514071 77.968769L546.514071 77.968769zM477.484905 77.968769c-18.99461 18.99461-20.084431 48.701189-2.433422 66.352197l358.272803 358.272803c17.649985 17.649985 47.357588 16.561188 66.352197-2.433422l0 0c18.99461-18.99461 20.084431-48.701189 2.433422-66.352197L543.837102 75.535347C526.187117 57.884338 496.479515 58.97416 477.484905 77.968769L477.484905 77.968769z" p-id="4688" fill="#ffffff"></path></svg>
