<?xml version="1.0" standalone="no"?><!DOCTYPE svg PUBLIC "-//W3C//DTD SVG 1.1//EN" "http://www.w3.org/Graphics/SVG/1.1/DTD/svg11.dtd"><svg t="1590126121117" class="icon" viewBox="0 0 1024 1024" version="1.1" xmlns="http://www.w3.org/2000/svg" p-id="3229" xmlns:xlink="http://www.w3.org/1999/xlink" width="16" height="16"><defs><style type="text/css"></style></defs><path d="M940.8 499.2c0-6.4-32-115.2-102.4-332.8-6.4-19.2-25.6-38.4-51.2-38.4H256c-25.6 0-44.8 12.8-51.2 38.4L102.4 499.2v371.2c0 32 25.6 51.2 51.2 51.2h729.6c32 0 51.2-25.6 51.2-51.2l6.4-371.2zM268.8 185.6h518.4l89.6 288h-224c-6.4 0-12.8 0-19.2 6.4-6.4 6.4-6.4 12.8-6.4 19.2 0 51.2-44.8 96-96 96s-96-44.8-96-96c0-19.2-12.8-32-32-32H179.2l89.6-281.6z m128 57.6c-19.2 0-32 12.8-32 32s12.8 32 32 32h268.8c19.2 0 32-12.8 32-32s-12.8-32-32-32H396.8zM326.4 358.4c-19.2 0-32 12.8-32 32s12.8 32 32 32h403.2c19.2 0 32-12.8 32-32s-12.8-32-32-32H326.4z" fill="#2c2c2c" p-id="3230"></path></svg>
