<?xml version="1.0" standalone="no"?><!DOCTYPE svg PUBLIC "-//W3C//DTD SVG 1.1//EN" "http://www.w3.org/Graphics/SVG/1.1/DTD/svg11.dtd"><svg t="1590126333967" class="icon" viewBox="0 0 1024 1024" version="1.1" xmlns="http://www.w3.org/2000/svg" p-id="2290" width="16" height="16" xmlns:xlink="http://www.w3.org/1999/xlink"><defs><style type="text/css"></style></defs><path d="M552 586.178l60.268-78.53c13.45-17.526 38.56-20.83 56.085-7.38s20.829 38.56 7.38 56.085l-132 172c-16.012 20.863-47.454 20.863-63.465 0l-132-172c-13.45-17.526-10.146-42.636 7.38-56.085 17.525-13.45 42.635-10.146 56.084 7.38L472 586.177V152c0-22.091 17.909-40 40-40s40 17.909 40 40v434.178zM832 512c0-22.091 17.909-40 40-40s40 17.909 40 40v288c0 61.856-50.144 112-112 112H224c-61.856 0-112-50.144-112-112V512c0-22.091 17.909-40 40-40s40 17.909 40 40v288c0 17.673 14.327 32 32 32h576c17.673 0 32-14.327 32-32V512z" p-id="2291" fill="#2c2c2c"></path></svg>
