<?xml version="1.0" standalone="no"?><!DOCTYPE svg PUBLIC "-//W3C//DTD SVG 1.1//EN" "http://www.w3.org/Graphics/SVG/1.1/DTD/svg11.dtd"><svg t="1590047117239" class="icon" viewBox="0 0 1024 1024" version="1.1" xmlns="http://www.w3.org/2000/svg" p-id="1923" xmlns:xlink="http://www.w3.org/1999/xlink" width="16" height="16"><defs><style type="text/css"></style></defs><path d="M672.8 128.3c28.5 0 56.2 5.3 82 15.4L634.5 264l-31.7 31.7 31.7 31.7 63.5 63.5 31.7 31.7 31.7-31.7 120.3-120.3c12.3 31.4 17.5 65.5 14.8 99.7-2 26.1-8.5 51.3-19.3 75-11.1 24.5-26.5 46.7-45.7 65.9-42.4 42.4-98.7 65.7-158.6 65.7-32.3 0-64.7-7.1-93.8-20.5l-28.4-13.1-22.1 22.1-311.8 311.8-71.4-71.4L458.2 493l21.7-21.7-12.4-28.1c-18.1-40.9-23.4-86-15.5-130.3 8.1-45.2 29.6-86.4 62.2-119 42.3-42.3 98.7-65.6 158.6-65.6m0-44.9c-68.9 0-137.8 26.3-190.3 78.8-80.9 80.9-99.5 200.4-56 299.1L82 805.8l134.8 134.8 343.4-343.4c35.6 16.4 74.1 24.6 112.6 24.6 68.9 0 137.8-26.3 190.4-78.8 94.3-94.3 104-241.2 29.1-346.4L729.6 359.2l-63.5-63.5 162.6-162.6C782.2 100 727.5 83.4 672.8 83.4zM246.3 805L218 776.7 189.7 805l28.3 28.3 28.3-28.3z" fill="#2c2c2c" p-id="1924"></path></svg>
