<?xml version="1.0" standalone="no"?><!DOCTYPE svg PUBLIC "-//W3C//DTD SVG 1.1//EN" "http://www.w3.org/Graphics/SVG/1.1/DTD/svg11.dtd"><svg t="1596099999732" class="icon" viewBox="0 0 1024 1024" version="1.1" xmlns="http://www.w3.org/2000/svg" p-id="5752" xmlns:xlink="http://www.w3.org/1999/xlink" width="16" height="16"><defs><style type="text/css"></style></defs><path d="M736.38 960.15H287.19c-53.12 0-96.23-43.02-96.23-96.08V383.53c0-19.03 15.03-32.05 32.07-32.05 17.05 0 32.08 13.02 32.08 32.05v480.54c0 16.98 15.06 32.01 32.07 32.01h449.19c17.04 0 32.1-15.03 32.1-32.01V384.52c0-42.06 64.16-42.06 64.16 0v479.55c0.01 53.06-43.1 96.08-96.25 96.08M319.3 159.25c0-17.01 15.03-32.05 32.07-32.05h321.85c17.04 0 31.08 13.02 31.08 32.05v64.1h-385v-64.1m609.6 64.1H768.49v-64.1c0-53.06-43.14-96.08-95.26-96.08H351.37c-53.15 0-96.25 43.02-96.25 96.08v64.1H94.7c-41.12 0-41.12 64.04 0 64.04h834.2c41.1 0 41.1-64.04 0-64.04M383.45 735.9V403.53c0-41.07 64.19-41.07 64.19 0V735.9c-0.01 41.07-64.19 41.07-64.19 0m192.52 0V403.53c0-41.07 64.15-41.07 64.15 0V735.9c0 41.07-64.15 41.07-64.15 0" p-id="5753" fill="#ffffff"></path><path d="M191.31 270.54h63.74v114.1h-63.74zM768.5 272.25h63.74v114.1H768.5z" p-id="5754" fill="#ffffff"></path></svg>
