<?xml version="1.0" standalone="no"?><!DOCTYPE svg PUBLIC "-//W3C//DTD SVG 1.1//EN" "http://www.w3.org/Graphics/SVG/1.1/DTD/svg11.dtd"><svg t="1613638923484" class="icon" viewBox="0 0 1024 1024" version="1.1" xmlns="http://www.w3.org/2000/svg" p-id="3178" xmlns:xlink="http://www.w3.org/1999/xlink" width="16" height="16"><defs><style type="text/css"></style></defs><path d="M832 626.592l-128-128-128 128-256.48-256.448L192 497.632V191.872h640V626.56z m0 205.28H192V588.16l127.52-127.52L576 717.12l128-128 128 128v114.72z m0-704H128v768h768v-768h-64z" fill="#ffffff" p-id="3179"></path><path d="M672 319.872c-17.632 0-32 14.368-32 32 0 17.6 14.368 32 32 32 17.632 0 32-14.4 32-32 0-17.632-14.368-32-32-32m0 128c-52.928 0-96-43.072-96-96s43.072-96 96-96 96 43.072 96 96-43.072 96-96 96" fill="#ffffff" p-id="3180"></path></svg>
