<?xml version="1.0" standalone="no"?><!DOCTYPE svg PUBLIC "-//W3C//DTD SVG 1.1//EN" "http://www.w3.org/Graphics/SVG/1.1/DTD/svg11.dtd"><svg t="1613638645426" class="icon" viewBox="0 0 1024 1024" version="1.1" xmlns="http://www.w3.org/2000/svg" p-id="2613" width="16" height="16" xmlns:xlink="http://www.w3.org/1999/xlink"><defs><style type="text/css"></style></defs><path d="M320 480h384v-64H320zM320 608h256v-64h-256zM320 736h256v-64h-256z" fill="#ffffff" p-id="2614"></path><path d="M832 160h-128V96H320v64H192c-19.2 0-32 12.8-32 32v704c0 19.2 12.8 32 32 32h640c19.2 0 32-12.8 32-32V192c0-19.2-12.8-32-32-32zM384 160h256v64h-256V160z m416 704H224V224h96v64h384V224h96v640z" fill="#ffffff" p-id="2615"></path></svg>
