<svg t="1590133902812" class="icon" viewBox="0 0 1024 1024" version="1.1" xmlns="http://www.w3.org/2000/svg" p-id="3455" width="16" height="16"><path d="M236.864 64h472.96L896 261.12V848c0 61.856-54.72 112-114.848 112h-544.32C176.768 960 128 909.856 128 848V176c0-61.856 48.736-112 108.864-112zM672 128v133.856A26.144 26.144 0 0 0 698.144 288H832L672 128z m106.656 768c29.44 0 53.344-24.576 53.344-54.848V347.424H672c-29.44 0-53.344-24.544-53.344-54.848V128H245.344C215.904 128 192 152.576 192 182.848v658.304C192 871.424 215.872 896 245.344 896h533.312z" p-id="3456" fill="#ffffff"></path></svg>
