<?xml version="1.0" standalone="no"?><!DOCTYPE svg PUBLIC "-//W3C//DTD SVG 1.1//EN" "http://www.w3.org/Graphics/SVG/1.1/DTD/svg11.dtd"><svg t="1590670565832" class="icon" viewBox="0 0 1025 1024" version="1.1" xmlns="http://www.w3.org/2000/svg" p-id="2640" xmlns:xlink="http://www.w3.org/1999/xlink" width="32.03125" height="32"><defs><style type="text/css"></style></defs><path d="M511.679524 1023.15939c-68.658678 0-135.399619-13.564433-198.369591-40.316509-60.752236-25.809077-115.373446-62.712976-162.346233-109.685763-46.971763-46.971763-83.875662-101.592974-109.685763-162.346233-26.751052-62.969971-40.315485-129.710912-40.315485-198.368567s13.564433-135.399619 40.315485-198.369591c25.810101-60.752236 62.714-115.373446 109.685763-162.346233 46.972787-46.971763 101.593997-83.875662 162.346233-109.685763C376.279905 15.28968 443.020846 1.725247 511.679524 1.725247S647.078119 15.28968 710.048091 42.040731c60.752236 25.810101 115.37447 62.714 162.346233 109.685763 46.972787 46.972787 83.876686 101.593997 109.686787 162.346233 26.752076 62.969971 40.316509 129.710912 40.316509 198.369591s-13.564433 135.398595-40.316509 198.368567c-25.810101 60.75326-62.712976 115.37447-109.685763 162.346233-46.971763 46.972787-101.593997 83.876686-162.346233 109.685763C647.079143 1009.594957 580.337178 1023.15939 511.679524 1023.15939zM511.679524 50.871742c-62.018782 0-122.293887 12.247716-179.152287 36.403219-54.923257 23.333323-104.317532 56.709936-146.810821 99.204249s-75.870926 91.888588-99.204249 146.810821c-24.155503 56.8584-36.403219 117.133505-36.403219 179.152287 0 62.017758 12.247716 122.292863 36.403219 179.152287 23.333323 54.923257 56.709936 104.317532 99.204249 146.811845 42.493289 42.493289 91.888588 75.870926 146.810821 99.204249 56.8584 24.155503 117.133505 36.403219 179.152287 36.403219 62.017758 0 122.293887-12.247716 179.153311-36.403219 54.923257-23.333323 104.317532-56.71096 146.810821-99.204249 42.494313-42.494313 75.87195-91.888588 99.205273-146.811845 24.155503-56.8584 36.403219-117.133505 36.403219-179.152287s-12.247716-122.293887-36.404243-179.152287c-23.333323-54.923257-56.71096-104.317532-99.204249-146.810821-42.494313-42.493289-91.888588-75.870926-146.811845-99.204249C633.972387 63.119459 573.697282 50.871742 511.679524 50.871742z" p-id="2641" fill="#1274e7"></path><path d="M451.780185 689.848881c-6.223175 0-12.452493-2.255619-17.365095-6.794503L253.195578 515.658342c-10.384245-9.592782-11.027245-25.787576-1.434463-36.171821 9.592782-10.386293 25.786552-11.026221 36.171821-1.434463l163.146912 150.703633 289.753404-289.754428c9.997216-9.996192 26.203273-9.996192 36.199466 0 9.996192 9.996192 9.996192 26.203273 0 36.199466L469.883501 682.351993C464.896156 687.339338 458.342266 689.848881 451.780185 689.848881z" p-id="2642" fill="#1274e7"></path></svg>