<svg t="1598949840969" class="icon" viewBox="0 0 1025 1024" version="1.1" xmlns="http://www.w3.org/2000/svg" p-id="8475" width="32" height="32"><path d="M945 774v169H81V774h864m20-80H61c-33.1 0-60 26.9-60 60v209c0 33.1 26.9 60 60 60h904c33.1 0 60-26.9 60-60V754c0-33.1-26.9-60-60-60z" fill="#1296db" p-id="8476"></path><path d="M668 81v612H188V81h480m20-80H168c-33.1 0-60 26.9-60 60v652c0 33.1 26.9 60 60 60h520c33.1 0 60-26.9 60-60V61c0-33.1-26.9-60-60-60z" fill="#1296db" p-id="8477"></path><path d="M812 198v495h-64V198h64m20-80H728c-33.1 0-60 26.9-60 60v535c0 33.1 26.9 60 60 60h104c33.1 0 60-26.9 60-60V178c0-33.1-26.9-60-60-60zM377 213h-89c-22.1 0-40-17.9-40-40s17.9-40 40-40h89c22.1 0 40 17.9 40 40s-17.9 40-40 40zM566 355H288c-22.1 0-40-17.9-40-40s17.9-40 40-40h278c22.1 0 40 17.9 40 40s-17.9 40-40 40zM565 497H288c-22.1 0-40-17.9-40-40s17.9-40 40-40h277c22.1 0 40 17.9 40 40s-17.9 40-40 40zM490 639H288c-22.1 0-40-17.9-40-40s17.9-40 40-40h202c22.1 0 40 17.9 40 40s-17.9 40-40 40zM545 901h-64c-22.1 0-40-17.9-40-40s17.9-40 40-40h64c22.1 0 40 17.9 40 40s-17.9 40-40 40z" fill="#1296db" p-id="8478"></path></svg>