<?xml version="1.0" standalone="no"?><!DOCTYPE svg PUBLIC "-//W3C//DTD SVG 1.1//EN" "http://www.w3.org/Graphics/SVG/1.1/DTD/svg11.dtd"><svg t="1590126485542" class="icon" viewBox="0 0 1024 1024" version="1.1" xmlns="http://www.w3.org/2000/svg" p-id="3889" xmlns:xlink="http://www.w3.org/1999/xlink" width="32" height="32"><defs><style type="text/css"></style></defs><path d="M170.666667 512a42.666667 42.666667 0 0 1-85.333334 0C85.333333 276.352 276.352 85.333333 512 85.333333a426.026667 426.026667 0 0 1 341.333333 170.624V213.333333a42.666667 42.666667 0 0 1 85.333334 0v170.666667a42.666667 42.666667 0 0 1-42.666667 42.666667h-170.666667a42.666667 42.666667 0 0 1 0-85.333334h82.346667A341.333333 341.333333 0 0 0 170.666667 512z m682.666666 0a42.666667 42.666667 0 0 1 85.333334 0c0 235.648-191.018667 426.666667-426.666667 426.666667a426.026667 426.026667 0 0 1-341.333333-170.624V810.666667a42.666667 42.666667 0 0 1-85.333334 0v-170.666667a42.666667 42.666667 0 0 1 42.666667-42.666667h170.666667a42.666667 42.666667 0 0 1 0 85.333334H216.32A341.333333 341.333333 0 0 0 853.333333 512z" fill="#2c2c2c" p-id="3890"></path></svg>