<svg t="1590405650542" class="icon" viewBox="0 0 1024 1024" version="1.1" xmlns="http://www.w3.org/2000/svg" p-id="2723" width="32" height="32"><path d="M511.943111 625.777778A114.005333 114.005333 0 0 0 625.777778 512c0-62.691556-51.029333-113.777778-113.720889-113.777778A114.005333 114.005333 0 0 0 398.222222 512c0 62.691556 51.029333 113.777778 113.720889 113.777778z m0 56.888889A170.780444 170.780444 0 0 1 341.333333 512c0-94.094222 76.572444-170.666667 170.723556-170.666667A170.780444 170.780444 0 0 1 682.666667 512c0 94.094222-76.572444 170.666667-170.723556 170.666667z" p-id="2724" fill="#ffffff"></path><path d="M719.416889 762.254222c-8.078222-41.016889-7.68-89.543111 11.946667-123.392 19.911111-34.702222 62.464-59.278222 103.139555-72.988444a605.980444 605.980444 0 0 0 4.437333-38.286222c0.455111-5.916444 0.682667-11.207111 0.682667-15.644445 0-4.494222-0.227556-9.784889-0.682667-15.815111a455.338667 455.338667 0 0 0-4.437333-38.115556c-41.187556-14.108444-83.114667-38.286222-103.082667-72.874666-19.569778-33.848889-19.911111-81.749333-12.003555-123.164445l-94.435556-54.954666c-31.857778 27.648-73.671111 51.427556-113.038222 51.427555-39.025778 0-80.384-23.381333-112.64-51.2L304.526222 261.688889c8.078222 41.016889 7.68 89.543111-11.946666 123.392-19.911111 34.702222-62.464 59.278222-103.139556 72.988444a605.980444 605.980444 0 0 0-4.437333 38.286223A219.932444 219.932444 0 0 0 184.32 512c0 4.494222 0.227556 9.784889 0.682667 15.815111a455.338667 455.338667 0 0 0 4.437333 38.115556c41.187556 14.108444 83.114667 38.286222 103.082667 72.874666 19.569778 33.848889 19.911111 81.749333 12.003555 123.164445l94.435556 54.954666c31.857778-27.648 73.671111-51.427556 113.038222-51.427555 39.139556 0 80.668444 23.552 112.696889 51.2l94.663111-54.499556z m-95.516445 114.119111a46.08 46.08 0 0 1-30.663111-11.491555c-11.946667-10.979556-52.394667-42.439111-81.180444-42.439111-29.013333 0-69.404444 31.459556-81.180445 42.439111a45.795556 45.795556 0 0 1-47.900444 8.078222l-2.332444-1.137778-116.622223-67.584a46.364444 46.364444 0 0 1-16.839111-45.511111c3.527111-15.701333 10.524444-66.503111-3.868444-91.420444-14.336-24.917333-61.895111-44.202667-77.368889-49.152a47.900444 47.900444 0 0 1-31.459556-35.84c-0.284444-1.706667-6.997333-41.244444-6.997333-70.257778 0-29.013333 6.712889-68.437333 6.997333-70.200889a47.900444 47.900444 0 0 1 31.516445-35.84c15.416889-4.835556 62.976-24.120889 77.368889-49.208889 14.449778-25.031111 7.509333-75.662222 3.811555-91.420444a45.966222 45.966222 0 0 1 16.839111-45.511111l2.161778-1.479112 116.622222-67.356444a45.795556 45.795556 0 0 1 47.957334 8.078222c11.946667 10.979556 52.394667 42.439111 81.180444 42.439111 29.013333 0 69.404444-31.459556 81.180445-42.439111a45.795556 45.795556 0 0 1 47.900444-8.078222l2.332444 1.137778 116.622223 67.584a46.364444 46.364444 0 0 1 16.839111 45.511111c-3.527111 15.701333-10.524444 66.503111 3.868444 91.420444 14.336 24.917333 61.895111 44.202667 77.368889 49.152a47.900444 47.900444 0 0 1 31.459556 35.84c0.284444 1.706667 6.997333 41.244444 6.997333 70.257778 0 29.013333-6.712889 68.437333-6.997333 70.200889a47.900444 47.900444 0 0 1-31.516445 35.84c-15.416889 4.835556-62.976 24.120889-77.368889 49.208889-14.449778 25.031111-7.509333 75.662222-3.811555 91.420444a46.08 46.08 0 0 1-16.839111 45.511111l-2.161778 1.479112-116.622222 67.356444a46.648889 46.648889 0 0 1-17.294223 3.413333z" p-id="2725" fill="#ffffff"></path></svg>