<?xml version="1.0" standalone="no"?>
<!DOCTYPE svg PUBLIC "-//W3C//DTD SVG 20010904//EN"
 "http://www.w3.org/TR/2001/REC-SVG-20010904/DTD/svg10.dtd">
<svg version="1.0" xmlns="http://www.w3.org/2000/svg"
 width="300.000000pt" height="300.000000pt" viewBox="0 0 300.000000 300.000000"
 preserveAspectRatio="xMidYMid meet">
<path xmlns="http://www.w3.org/2000/svg" d="M141,0 C218.87215,0 282,63.1278503 282,141 C282,218.87215 218.87215,282 141,282 C63.1278503,282 0,218.87215 0,141 C0,63.1278503 63.1278503,0 141,0 Z M141,16 C71.9644063,16 16,71.9644063 16,141 C16,210.035594 71.9644063,266 141,266 C210.035594,266 266,210.035594 266,141 C266,71.9644063 210.035594,16 141,16 Z M126.612281,101.615244 L151.404078,141.687003 L160.698872,126.594898 L145.186718,101.615244 L171.570781,101.615244 L173.872849,105.387262 L176.234925,101.615244 L202.501802,101.615244 L186.983644,126.590862 L196.665554,142.238833 L221.724453,101.615244 L248,101.615244 L196.672745,184.93451 L173.860814,147.954867 L151.43389,185 L100.30763,101.615244 L126.612281,101.615244 Z M84.4763542,98 L135.838604,181.312859 L109.700176,181.312859 L84.6005021,140.980822 L69.9404731,164.40873 L59.1966669,181.312859 L33,181.312859 L84.4763542,98 Z" id="形状结合"/>
</svg>
