<svg width="16" height="16" viewBox="0 0 16 16" fill="none" xmlns="http://www.w3.org/2000/svg">
<path fill-rule="evenodd" clip-rule="evenodd" d="M8.40003 5.19999H7.60004V4.39999H8.40003V5.19999V5.19999ZM11.5999 7.59991H10.8V8.3999H11.5999V7.59991V7.59991ZM5.99991 5.19997H5.19992V5.99996H5.99991V5.19997V5.19997ZM5.19993 7.59991H4.39994V8.3999H5.19993V7.59991V7.59991ZM14 3.19997L13.6 2.79998L8.40004 6.79994C8.35204 6.78394 7.60005 6.79994 7.60005 6.79994C7.16005 6.79994 6.80006 7.15993 6.80006 7.59993V8.39992C6.80006 8.83991 7.16005 9.19991 7.60005 9.19991H8.40004C8.84004 9.19991 9.20003 8.83991 9.20003 8.39992V7.66393L14 3.19997V3.19997ZM12.7279 6.47195C12.8799 6.95995 12.9679 7.47194 12.9679 7.99993C12.9679 10.7359 10.7439 12.9599 8.00793 12.9599C5.27196 12.9599 3.03999 10.7359 3.03999 7.99993C3.03999 5.26396 5.26396 3.03999 7.99993 3.03999C8.95992 3.03999 9.84791 3.31199 10.6159 3.79198L11.3679 3.03999C10.4159 2.392 9.25592 2 8.00793 2C4.68797 2 2 4.68797 2 7.99993C2 11.3119 4.68797 13.9999 7.99993 13.9999C11.3119 13.9999 13.9999 11.3119 13.9999 7.99993C13.9999 7.17594 13.8399 6.38395 13.5279 5.67196L12.7279 6.47195V6.47195Z" fill="#A641F4"/>
</svg>
