<svg t="1598949263874" class="icon" viewBox="0 0 1024 1024" version="1.1" xmlns="http://www.w3.org/2000/svg" p-id="6114" width="32" height="32"><path d="M930.909091 930.909091a93.090909 93.090909 0 0 1-93.090909 93.090909H186.181818a93.090909 93.090909 0 0 1-93.090909-93.090909V93.090909a93.090909 93.090909 0 0 1 93.090909-93.090909h465.454546l279.272727 279.272727v651.636364z" fill="#1E89FF" p-id="6115"></path><path d="M651.636364 0l279.272727 279.272727h-209.454546A69.818182 69.818182 0 0 1 651.636364 209.454545V0z" fill="#70BFFF" p-id="6116"></path><path d="M232.727273 302.545455m34.909091 0l302.545454 0q34.909091 0 34.909091 34.90909l0 0q0 34.909091-34.909091 34.909091l-302.545454 0q-34.909091 0-34.909091-34.909091l0 0q0-34.909091 34.909091-34.90909Z" fill="#FFFFFF" fill-opacity=".881" p-id="6117"></path><path d="M232.727273 512m34.909091 0l442.181818 0q34.909091 0 34.909091 34.909091l0 0q0 34.909091-34.909091 34.909091l-442.181818 0q-34.909091 0-34.909091-34.909091l0 0q0-34.909091 34.909091-34.909091Z" fill="#FFFFFF" fill-opacity=".881" p-id="6118"></path><path d="M232.727273 721.454545m34.909091 0l442.181818 0q34.909091 0 34.909091 34.909091l0 0q0 34.909091-34.909091 34.909091l-442.181818 0q-34.909091 0-34.909091-34.909091l0 0q0-34.909091 34.909091-34.909091Z" fill="#FFFFFF" fill-opacity=".881" p-id="6119"></path></svg>