<?xml version="1.0" standalone="no"?><!DOCTYPE svg PUBLIC "-//W3C//DTD SVG 1.1//EN" "http://www.w3.org/Graphics/SVG/1.1/DTD/svg11.dtd"><svg t="1595924042550" class="icon" viewBox="0 0 1024 1024" version="1.1" xmlns="http://www.w3.org/2000/svg" p-id="1640" width="16" height="16" xmlns:xlink="http://www.w3.org/1999/xlink"><defs><style type="text/css"></style></defs><path d="M896 684.8H275.2l57.6-57.6-44.8-44.8-112 112-22.4 22.4L288 854.4l44.8-44.8-57.6-57.6H960V464c0-19.2-12.8-32-32-32s-32 12.8-32 32v220.8zM691.2 358.4l44.8 44.8 112-112 22.4-22.4L736 134.4l-44.8 44.8 57.6 57.6H64v288c0 19.2 12.8 32 32 32s32-12.8 32-32v-224h620.8l-57.6 57.6z" fill="#ff6a00" p-id="1641"></path></svg>