<svg t="1598509838063" class="icon" viewBox="0 0 1024 1024" version="1.1" xmlns="http://www.w3.org/2000/svg" p-id="2259" width="128" height="128"><path d="M945.93 130.759c-7.638-15.276-26.279-21.619-41.684-13.981L92.312 520.027c-15.276 7.638-21.619 26.279-13.981 41.684 1.683 3.365 3.884 6.343 6.473 8.803 3.365 3.237 7.378 5.696 12.169 7.249l273.148 85.828 41.943-52.041-222.919-70.035 611.539-303.957-327.131 395.999a22.868 22.868 0 0 0-2.071 2.848l-37.801 46.991v194.957c0 17.218 13.852 31.069 31.069 31.069s31.069-13.852 31.069-31.069v-175.54l297.097 93.206c3.495 1.036 6.991 1.553 10.485 1.423 15.017 0.388 28.609-10.227 31.457-25.502l113.79-621.507c0.388-2.071 0.517-4.272 0.517-6.343-0.13-4.402-1.036-9.062-3.237-13.333zM779.969 726.893l-240.396-75.472L866.314 255.81l-86.346 471.082z" fill="" p-id="2260"></path></svg>