<svg t="1591596666658" class="icon" viewBox="0 0 1024 1024" version="1.1" xmlns="http://www.w3.org/2000/svg" p-id="2607" width="32" height="32"><path d="M853.333333 938.666667 42.666667 938.666667c-25.6 0-42.666667-17.066667-42.666667-42.666667L0 128c0-25.6 17.066667-42.666667 42.666667-42.666667l298.666667 0c25.6 0 42.666667 17.066667 42.666667 42.666667l0 42.666667 469.333333 0c25.6 0 42.666667 17.066667 42.666667 42.666667l0 170.666667c0 25.6-17.066667 42.666667-42.666667 42.666667s-42.666667-17.066667-42.666667-42.666667L810.666667 256 341.333333 256C315.733333 256 298.666667 238.933333 298.666667 213.333333L298.666667 170.666667 85.333333 170.666667l0 682.666667 768 0c25.6 0 42.666667 17.066667 42.666667 42.666667S878.933333 938.666667 853.333333 938.666667z" p-id="2608" fill="#ffffff"></path><path d="M853.333333 938.666667 42.666667 938.666667c-12.8 0-25.6-4.266667-34.133333-17.066667S0 900.266667 0 887.466667l128-512C132.266667 354.133333 149.333333 341.333333 170.666667 341.333333l810.666667 0c12.8 0 25.6 4.266667 34.133333 17.066667S1024 379.733333 1024 392.533333l-128 512C891.733333 925.866667 874.666667 938.666667 853.333333 938.666667zM98.133333 853.333333l721.066667 0 106.666667-426.666667L204.8 426.666667 98.133333 853.333333z" p-id="2609" fill="#ffffff"></path></svg>