<svg t="1597851026816" class="icon" viewBox="0 0 1024 1024" version="1.1" xmlns="http://www.w3.org/2000/svg" p-id="9728" width="32" height="32"><path d="M864 576.128c-17.664 0-32 14.336-32 32l0 224L192 832.128l0-640 224 0c17.664 0 32-14.336 32-32s-14.336-32-32-32L192 128.128c-35.392 0-64 28.608-64 64l0 640c0 35.392 28.608 64 64 64l640 0c35.392 0 64-28.608 64-64l0-224C896 590.464 881.664 576.128 864 576.128zM886.656 137.472c-0.192-0.128-0.192-0.384-0.384-0.512C880.128 130.816 872.128 128 864.128 128.128c-0.064 0-0.064 0-0.128 0l-256 0c-17.664 0-32 14.336-32 32s14.336 32 32 32l180.096 0L392.768 587.52c-11.904 11.904-11.904 31.04 0 42.944 11.84 11.904 31.04 11.904 42.944 0L832 234.112l0 182.016c0 17.664 14.336 32 32 32s32-14.336 32-32l0-256C896 151.296 892.416 143.232 886.656 137.472z" p-id="9729" fill="#2c2c2c"></path></svg>